<svg width="1200" height="640" viewBox="0 0 1200 640" xmlns="http://www.w3.org/2000/svg">
  <defs>
    <linearGradient id="bg" x1="0" y1="0" x2="1200" y2="640"><stop stop-color="#F8FAFC"/><stop offset="1" stop-color="#ECFEFF"/></linearGradient>
    <linearGradient id="blue" x1="0" y1="0" x2="1" y2="1"><stop stop-color="#2563EB"/><stop offset="1" stop-color="#06B6D4"/></linearGradient>
    <linearGradient id="purple" x1="0" y1="0" x2="1" y2="1"><stop stop-color="#7C3AED"/><stop offset="1" stop-color="#DB2777"/></linearGradient>
    <linearGradient id="green" x1="0" y1="0" x2="1" y2="1"><stop stop-color="#16A34A"/><stop offset="1" stop-color="#84CC16"/></linearGradient>
    <filter id="s" x="-20%" y="-20%" width="140%" height="140%"><feDropShadow dx="0" dy="10" stdDeviation="10" flood-color="#0F172A" flood-opacity="0.15"/></filter>
    <marker id="arrow" viewBox="0 0 10 10" refX="8" refY="5" markerWidth="7" markerHeight="7" orient="auto-start-reverse"><path d="M0,0 L10,5 L0,10 z" fill="#334155"/></marker>
  </defs>
  <rect width="1200" height="640" rx="26" fill="url(#bg)"/>
  <text x="60" y="72" fill="#0F172A" font-family="Inter,Segoe UI,Arial" font-size="34" font-weight="800">System Architecture</text>
  <text x="60" y="105" fill="#475569" font-family="Inter,Segoe UI,Arial" font-size="17">Chat UI, API layer, RAG services, vector retrieval, LLM layer, and observability loop.</text>

  <g font-family="Inter,Segoe UI,Arial" font-size="16" font-weight="700" text-anchor="middle">
    <g filter="url(#s)"><rect x="70" y="180" width="180" height="86" rx="20" fill="url(#purple)"/><text x="160" y="216" fill="white">Streamlit</text><text x="160" y="242" fill="#FCE7F3" font-size="13">Chat frontend</text></g>
    <g filter="url(#s)"><rect x="330" y="180" width="180" height="86" rx="20" fill="url(#blue)"/><text x="420" y="216" fill="white">FastAPI</text><text x="420" y="242" fill="#DBEAFE" font-size="13">Routes + schemas</text></g>
    <g filter="url(#s)"><rect x="590" y="180" width="180" height="86" rx="20" fill="#0F172A"/><text x="680" y="216" fill="white">RAG Service</text><text x="680" y="242" fill="#CBD5E1" font-size="13">Orchestration</text></g>
    <g filter="url(#s)"><rect x="850" y="180" width="200" height="86" rx="20" fill="url(#green)"/><text x="950" y="216" fill="white">LLM Provider</text><text x="950" y="242" fill="#DCFCE7" font-size="13">OpenAI or mock</text></g>

    <g filter="url(#s)"><rect x="250" y="365" width="190" height="96" rx="20" fill="#0EA5E9"/><text x="345" y="405" fill="white">Embeddings</text><text x="345" y="432" fill="#E0F2FE" font-size="13">OpenAI / local</text></g>
    <g filter="url(#s)"><rect x="510" y="365" width="190" height="96" rx="20" fill="#14B8A6"/><text x="605" y="405" fill="white">pgvector</text><text x="605" y="432" fill="#CCFBF1" font-size="13">Top-k search</text></g>
    <g filter="url(#s)"><rect x="770" y="365" width="190" height="96" rx="20" fill="#F97316"/><text x="865" y="405" fill="white">Reranker</text><text x="865" y="432" fill="#FFEDD5" font-size="13">Similarity + keywords</text></g>
    <g filter="url(#s)"><rect x="440" y="520" width="320" height="66" rx="18" fill="#475569"/><text x="600" y="560" fill="white">Query logs · cost · tokens · groundedness · feedback</text></g>
  </g>

  <g stroke="#334155" stroke-width="3" fill="none" marker-end="url(#arrow)">
    <path d="M250 223 H325"/><path d="M510 223 H585"/><path d="M770 223 H845"/>
    <path d="M680 266 C680 315 410 320 355 360"/>
    <path d="M440 413 H505"/><path d="M700 413 H765"/>
    <path d="M865 365 C845 315 735 306 700 267"/>
    <path d="M950 266 C960 330 908 330 880 365"/>
    <path d="M680 267 C650 405 620 455 606 515"/>
  </g>
</svg>
